<?xml version="1.0" encoding="utf-8"?>
<!-- Generator: Adobe Illustrator 21.1.0, SVG Export Plug-In . SVG Version: 6.00 Build 0)  -->
<svg version="1.1" id="Слой_1" xmlns="http://www.w3.org/2000/svg" xmlns:xlink="http://www.w3.org/1999/xlink" x="0px" y="0px"
	 viewBox="0 0 1010 1090" style="enable-background:new 0 0 1010 1090;" xml:space="preserve">
<style type="text/css">
	.st0{fill:#D82412;}
	.st1{font-family:'Tahoma';}
	.st2{font-size:31.3949px;}
	.st3{fill:#111D59;}
	.st4{fill:#FC0000;}
	.st5{fill:#F90606;}
	.st6{fill:#F90000;}
	.st7{fill:none;stroke:#000000;stroke-width:2.8346;stroke-miterlimit:10;}
	.st8{fill:#050507;}
	.st9{font-size:15.7023px;}
	.st10{opacity:0.27;fill:#4A6666;stroke:#111D59;stroke-width:2.8346;stroke-miterlimit:10;enable-background:new    ;}
	.st11{opacity:0.37;fill:#F9F946;stroke:#FFBE4A;stroke-width:2.8346;stroke-miterlimit:10;enable-background:new    ;}
	.st12{fill:#F79B14;}
	.st13{fill:none;stroke:#020307;stroke-width:2.8346;stroke-miterlimit:10;}
	.st14{opacity:0.21;fill:#567C51;stroke:#083F04;stroke-width:2.8346;stroke-miterlimit:10;enable-background:new    ;}
	.st15{fill:#1D4403;}
	.st16{font-size:16.5522px;}
	.st17{fill:#040611;}
	.st18{fill:none;stroke:#05060A;stroke-width:2.8346;stroke-miterlimit:10;}
	.st19{opacity:0.18;fill:#F74871;stroke:#FFBE4A;stroke-width:2.8346;stroke-miterlimit:10;enable-background:new    ;}
	.st20{fill:#F4165B;}
	.st21{fill:none;stroke:#010102;stroke-width:2.8346;stroke-miterlimit:10;}
	.st22{fill:none;stroke:#02040C;stroke-width:2.8346;stroke-miterlimit:10;}
	.st23{font-size:38.2551px;}
	.st24{font-size:17.9262px;}
	.st25{fill:#020305;}
	.st26{font-size:17.0057px;}
	.st27{fill:none;stroke:#000102;stroke-width:2.8346;stroke-miterlimit:10;}
	.st28{fill:none;stroke:#030407;stroke-width:2.8346;stroke-miterlimit:10;}
	.st29{fill:none;stroke:#111D59;stroke-width:2.8346;stroke-miterlimit:10;}
	.st30{fill:#040714;}
	.st31{fill:none;stroke:#000000;stroke-miterlimit:10;}
</style>
<text transform="matrix(1 0 0 1 255.0746 336.0527)" class="st0 st1 st2">L</text>
<text transform="matrix(1 0 0 1 270.6986 336.0527)" class="st3 st1 st2">earning </text>
<text transform="matrix(1 0 0 1 384.3763 336.0527)" class="st4 st1 st2">C</text>
<text transform="matrix(1 0 0 1 403.2142 336.0527)" class="st3 st1 st2">ontent </text>
<text transform="matrix(1 0 0 1 502.5834 336.0527)" class="st5 st1 st2">M</text>
<text transform="matrix(1 0 0 1 526.8226 336.0527)" class="st3 st1 st2">anagement </text>
<text transform="matrix(1 0 0 1 691.8285 336.0527)" class="st6 st1 st2">S</text>
<text transform="matrix(1 0 0 1 709.3529 336.0527)" class="st3 st1 st2">ystem</text>
<path class="st7" d="M372.2,229.1H215.6c-4.9,0-8.9-4-8.9-8.9V48.9c0-4.9,4-8.9,8.9-8.9h156.6c4.9,0,8.9,4,8.9,8.9v171.2
	C381.2,225,377.1,229.1,372.2,229.1z"/>
<text transform="matrix(1 0 0 1 234.0292 60.1125)" class="st8 st1 st9">Учебный модуль</text>
<g>
	<path class="st10" d="M370.8,115.8H217.3c-2.3,0-4-1.9-4-4v-34c0-2.3,1.9-4,4-4h153.4c2.3,0,4,1.9,4,4v33.9
		C374.9,114,373,115.8,370.8,115.8z"/>
	<g>
		<text transform="matrix(1 0 0 1 241.5809 98.9406)" class="st3 st1 st9">Учебный эл-т</text>
	</g>
</g>
<g>
	<path class="st10" d="M370.8,165.5H217.3c-2.3,0-4-1.9-4-4v-33.9c0-2.3,1.9-4,4-4h153.4c2.3,0,4,1.9,4,4v33.9
		C374.9,163.6,373,165.5,370.8,165.5z"/>
	<g>
		<text transform="matrix(1 0 0 1 241.5809 148.5968)" class="st3 st1 st9">Учебный эл-т</text>
	</g>
</g>
<g>
	<path class="st10" d="M370.8,217.1H217.3c-2.3,0-4-1.9-4-4v-34c0-2.3,1.9-4,4-4h153.4c2.3,0,4,1.9,4,4V213
		C374.9,215.3,373,217.1,370.8,217.1z"/>
	<g>
		<text transform="matrix(1 0 0 1 241.5809 200.2404)" class="st3 st1 st9">Учебный эл-т</text>
	</g>
</g>
<path class="st7" d="M586.4,229.1H429.8c-4.9,0-8.9-4-8.9-8.9V48.9c0-4.9,4-8.9,8.9-8.9h156.6c4.9,0,8.9,4,8.9,8.9v171.2
	C595.3,225,591.3,229.1,586.4,229.1z"/>
<g>
	<text transform="matrix(1 0 0 1 447.4979 60.1125)" class="st8 st1 st9">Учебный модуль</text>
</g>
<g>
	<path class="st11" d="M585,115.8H431.6c-2.3,0-4-1.9-4-4v-34c0-2.3,1.9-4,4-4H585c2.3,0,4,1.9,4,4v33.9
		C589.1,114,587.2,115.8,585,115.8z"/>
	<g>
		<text transform="matrix(1 0 0 1 455.7694 98.9406)" class="st12 st1 st9">Учебный эл-т</text>
	</g>
</g>
<g>
	<path class="st11" d="M585,165.5H431.6c-2.3,0-4-1.9-4-4v-33.9c0-2.3,1.9-4,4-4H585c2.3,0,4,1.9,4,4v33.9
		C589.1,163.6,587.2,165.5,585,165.5z"/>
	<g>
		<text transform="matrix(1 0 0 1 455.7694 148.5968)" class="st12 st1 st9">Учебный эл-т</text>
	</g>
</g>
<g>
	<path class="st11" d="M585,217.1H431.6c-2.3,0-4-1.9-4-4v-34c0-2.3,1.9-4,4-4H585c2.3,0,4,1.9,4,4V213
		C589.1,215.3,587.2,217.1,585,217.1z"/>
	<g>
		<text transform="matrix(1 0 0 1 455.7694 200.2404)" class="st12 st1 st9">Учебный эл-т</text>
	</g>
</g>
<path class="st13" d="M807.5,229.1H650.9c-4.9,0-8.9-4-8.9-8.9V48.9c0-4.9,4-8.9,8.9-8.9h156.6c4.9,0,8.9,4,8.9,8.9v171.2
	C816.4,225,812.4,229.1,807.5,229.1z"/>
<g>
	<text transform="matrix(1 0 0 1 665.4667 60.1125)" class="st8 st1 st9">Учебный модуль</text>
</g>
<g>
	<path class="st14" d="M806.1,115.8H652.7c-2.3,0-4-1.9-4-4v-34c0-2.3,1.9-4,4-4h153.4c2.3,0,4,1.9,4,4v33.9
		C810.1,114,808.4,115.8,806.1,115.8z"/>
	<g>
		<text transform="matrix(1 0 0 1 674.2411 98.9406)" class="st15 st1 st16">Учебный эл-т</text>
	</g>
</g>
<g>
	<path class="st14" d="M806.1,165.5H652.7c-2.3,0-4-1.9-4-4v-33.9c0-2.3,1.9-4,4-4h153.4c2.3,0,4,1.9,4,4v33.9
		C810.1,163.6,808.4,165.5,806.1,165.5z"/>
	<g>
		<text transform="matrix(1 0 0 1 674.2411 148.5968)" class="st15 st1 st16">Учебный эл-т</text>
	</g>
</g>
<g>
	<path class="st14" d="M806.1,217.1H652.7c-2.3,0-4-1.9-4-4v-34c0-2.3,1.9-4,4-4h153.4c2.3,0,4,1.9,4,4V213
		C810.1,215.3,808.4,217.1,806.1,217.1z"/>
	<text transform="matrix(1 0 0 1 674.2411 200.2404)" class="st15 st1 st16">Учебный эл-т</text>
</g>
<g>
	<path class="st7" d="M588.2,293.6H434.7c-2.3,0-4-1.9-4-4v-33.9c0-2.3,1.9-4,4-4h153.4c2.3,0,4,1.9,4,4v33.9
		C592.2,291.7,590.4,293.6,588.2,293.6z"/>
	<g>
		<text transform="matrix(1 0 0 1 457.7196 276.6691)" class="st17 st1 st9">Учебный курс</text>
	</g>
</g>
<line class="st18" x1="746.2" y1="406.5" x2="269.3" y2="406.5"/>
<path class="st7" d="M367.6,617.3H204.3c-5.1,0-9.3-4.2-9.3-9.3V429.4c0-5.1,4.2-9.3,9.3-9.3h163.4c5.1,0,9.3,4.2,9.3,9.3V608
	C376.9,613.1,372.8,617.3,367.6,617.3z"/>
<path class="st7" d="M595.1,618H431.8c-5.1,0-9.3-4.2-9.3-9.3V430.2c0-5.1,4.2-9.3,9.3-9.3h163.3c5.1,0,9.3,4.2,9.3,9.3v178.6
	C604.4,613.8,600.3,618,595.1,618z"/>
<path class="st7" d="M817.4,617.3H654c-5.1,0-9.3-4.2-9.3-9.3V429.4c0-5.1,4.2-9.3,9.3-9.3h163.4c5.1,0,9.3,4.2,9.3,9.3V608
	C826.7,613.1,822.5,617.3,817.4,617.3z"/>
<g>
	<path class="st7" d="M593.6,398.3H433.5c-2.3,0-4.2-1.9-4.2-4.2v-35.4c0-2.3,1.9-4.2,4.2-4.2h160.1c2.3,0,4.2,1.9,4.2,4.2v35.4
		C597.8,396.3,595.9,398.3,593.6,398.3z"/>
	<g>
		<text transform="matrix(1 0 0 1 459.6727 380.6408)" class="st1 st9">Учебный курс</text>
	</g>
</g>
<line class="st7" x1="513.4" y1="397.5" x2="513.4" y2="419.7"/>
<line class="st7" x1="270" y1="405.1" x2="270" y2="420.1"/>
<line class="st7" x1="746.2" y1="405.2" x2="746.2" y2="419.7"/>
<g>
	<path class="st19" d="M595.6,492.3H435.5c-2.3,0-4.2-1.9-4.2-4.2v-35.4c0-2.3,1.9-4.2,4.2-4.2h160.1c2.3,0,4.2,1.9,4.2,4.2v35.4
		C599.8,490.4,597.9,492.3,595.6,492.3z"/>
	<g>
		<text transform="matrix(1 0 0 1 462.8622 474.7179)" class="st20 st1 st9">Учебный эл-т</text>
	</g>
</g>
<g>
	<path class="st19" d="M595.6,550.4H435.5c-2.3,0-4.2-1.9-4.2-4.2v-35.4c0-2.3,1.9-4.2,4.2-4.2h160.1c2.3,0,4.2,1.9,4.2,4.2v35.4
		C599.8,548.5,597.9,550.4,595.6,550.4z"/>
	<g>
		<text transform="matrix(1 0 0 1 462.8622 532.7335)" class="st20 st1 st9">Учебный эл-т</text>
	</g>
</g>
<g>
	<path class="st19" d="M595.6,606.8H435.5c-2.3,0-4.2-1.9-4.2-4.2v-35.4c0-2.3,1.9-4.2,4.2-4.2h160.1c2.3,0,4.2,1.9,4.2,4.2v35.4
		C599.8,604.9,597.9,606.8,595.6,606.8z"/>
	<g>
		<text transform="matrix(1 0 0 1 462.8622 589.2423)" class="st20 st1 st9">Учебный эл-т</text>
	</g>
</g>
<g>
	<path class="st19" d="M816.3,488.9h-160c-2.3,0-4.2-1.9-4.2-4.2v-35.4c0-2.3,1.9-4.2,4.2-4.2h160.1c2.3,0,4.2,1.9,4.2,4.2v35.4
		C820.6,487,818.6,488.9,816.3,488.9z"/>
	<g>
		<text transform="matrix(1 0 0 1 683.6219 471.2931)" class="st20 st1 st9">Учебный эл-т</text>
	</g>
</g>
<g>
	<path class="st19" d="M816.3,603.4h-160c-2.3,0-4.2-1.9-4.2-4.2v-35.4c0-2.3,1.9-4.2,4.2-4.2h160.1c2.3,0,4.2,1.9,4.2,4.2v35.4
		C820.6,601.5,818.6,603.4,816.3,603.4z"/>
	<g>
		<text transform="matrix(1 0 0 1 683.6219 585.8165)" class="st20 st1 st9">Учебный эл-т</text>
	</g>
</g>
<line class="st7" x1="285.9" y1="243.7" x2="743.1" y2="242.2"/>
<line class="st13" x1="509.1" y1="251.5" x2="509.1" y2="230.2"/>
<line class="st21" x1="742.4" y1="243.7" x2="742.4" y2="229.1"/>
<line class="st22" x1="285.9" y1="245" x2="285.9" y2="229.1"/>
<g>
	<text transform="matrix(1 0 0 1 224.7782 440.7609)" class="st1 st9">Учебный модуль</text>
</g>
<g>
	<text transform="matrix(1 0 0 1 452.9618 441.4464)" class="st1 st9">Учебный модуль</text>
</g>
<g>
	<text transform="matrix(1 0 0 1 674.9774 440.7609)" class="st1 st9">Учебный модуль</text>
</g>
<g>
	<path class="st11" d="M361.6,491.2H208.2c-2.3,0-4-1.9-4-4v-34c0-2.3,1.9-4,4-4h153.4c2.3,0,4,1.9,4,4v33.9
		C365.7,489.4,363.9,491.2,361.6,491.2z"/>
	<g>
		<text transform="matrix(1 0 0 1 232.3846 474.3341)" class="st12 st1 st9">Учебный эл-т</text>
	</g>
</g>
<g>
	<path class="st10" d="M362.6,546.1H209.1c-2.3,0-4-1.9-4-4v-34c0-2.3,1.9-4,4-4h153.4c2.3,0,4,1.9,4,4V542
		C366.7,544.2,364.8,546.1,362.6,546.1z"/>
	<g>
		<text transform="matrix(1 0 0 1 233.3583 529.1525)" class="st3 st1 st9">Учебный эл-т</text>
	</g>
</g>
<g>
	<path class="st14" d="M363.4,600.9H210c-2.3,0-4-1.9-4-4v-34c0-2.3,1.9-4,4-4h153.4c2.3,0,4,1.9,4,4v33.9
		C367.5,599,365.7,600.9,363.4,600.9z"/>
	<text transform="matrix(1 0 0 1 231.58 583.9708)" class="st15 st1 st16">Учебный эл-т</text>
</g>
<g>
	<path class="st11" d="M813.2,546.1H659.7c-2.3,0-4-1.9-4-4v-34c0-2.3,1.9-4,4-4h153.4c2.3,0,4,1.9,4,4V542
		C817.3,544.2,815.4,546.1,813.2,546.1z"/>
	<g>
		<text transform="matrix(1 0 0 1 683.954 529.1525)" class="st12 st1 st9">Учебный эл-т</text>
	</g>
</g>
<text transform="matrix(1 0 0 1 263.679 710.9085)" class="st0 st1 st23">L</text>
<text transform="matrix(1 0 0 1 282.72 712.3997)" class="st3 st1 st23">earning </text>
<text transform="matrix(1 0 0 1 444.1898 712.3997)" class="st3 st1 st23"> </text>
<text transform="matrix(1 0 0 1 416.095 713.8919)" class="st5 st1 st23">M</text>
<text transform="matrix(1 0 0 1 445.6322 713.8919)" class="st3 st1 st23">anagement </text>
<text transform="matrix(1 0 0 1 646.6942 713.8919)" class="st6 st1 st23">S</text>
<text transform="matrix(1 0 0 1 668.0458 713.8919)" class="st3 st1 st23">ystem</text>
<g>
	<path class="st14" d="M834.7,961.6v36.7c0,2.4-2,4.4-4.4,4.4H664.1c-2.4,0-4.4-2-4.4-4.4v-36.7c0-2.4,2-4.4,4.4-4.4h166.1
		C832.7,957.2,834.6,959.1,834.7,961.6z"/>
	<g>
		<text transform="matrix(1 0 0 1 691.8285 985.8994)" class="st15 st1 st24">Учебный эл-т</text>
	</g>
</g>
<g>
	<path class="st7" d="M580.2,788.4H413.9c-2.4,0-4.4-2-4.4-4.4v-36.7c0-2.4,2-4.4,4.4-4.4h166.2c2.4,0,4.4,2,4.4,4.4V784
		C584.6,786.4,582.6,788.4,580.2,788.4z"/>
	<g>
		<text transform="matrix(1 0 0 1 441.8729 770.1465)" class="st25 st1 st26">Учебный курс</text>
	</g>
</g>
<line class="st27" x1="249.4" y1="805.9" x2="744.6" y2="804.3"/>
<line class="st28" x1="744.6" y1="822.3" x2="744.6" y2="803.1"/>
<line class="st29" x1="250.4" y1="818.9" x2="250.4" y2="804.8"/>
<path class="st7" d="M829.7,826.7v36.7c0,2.4-2,4.4-4.4,4.4H659.1c-2.4,0-4.4-2-4.4-4.4v-36.7c0-2.4,2-4.4,4.4-4.4h166.2
	C827.7,822.3,829.7,824.3,829.7,826.7z"/>
<text transform="matrix(1 0 0 1 680.4539 850.833)" class="st30 st1 st26">Учебный модуль</text>
<g>
	<path class="st14" d="M696.6,893.2v36.7c0,2.4-2,4.4-4.4,4.4H526c-2.4,0-4.4-2-4.4-4.4v-36.7c0-2.4,2-4.4,4.4-4.4h166.2
		C694.6,888.8,696.6,890.7,696.6,893.2z"/>
	<g>
		<text transform="matrix(1 0 0 1 549.3926 917.4999)" class="st15 st1 st24">Учебный эл-т</text>
	</g>
</g>
<line class="st7" x1="746.4" y1="867.8" x2="745.6" y2="957.7"/>
<g>
	<path class="st14" d="M984.6,894.4v36.7c0,2.4-2,4.4-4.4,4.4H814c-2.4,0-4.4-2-4.4-4.4v-36.7c0-2.4,2-4.4,4.4-4.4h166.2
		C982.6,890,984.6,891.9,984.6,894.4z"/>
	<g>
		<text transform="matrix(1 0 0 1 842.8818 917.4999)" class="st15 st1 st24">Учебный эл-т</text>
	</g>
</g>
<line class="st31" x1="0" y1="661.1" x2="1010" y2="661.1"/>
<line class="st7" x1="497" y1="786.8" x2="497" y2="803.9"/>
<line class="st7" x1="672" y1="867.8" x2="672" y2="889.3"/>
<line class="st7" x1="815.3" y1="869.1" x2="815.3" y2="890.6"/>
<g>
	<path class="st14" d="M342.3,961.1v36.7c0,2.4-2,4.4-4.4,4.4H171.7c-2.4,0-4.4-2-4.4-4.4v-36.7c0-2.4,2-4.4,4.4-4.4h166.1
		C340.3,956.7,342.2,958.6,342.3,961.1z"/>
	<g>
		<text transform="matrix(1 0 0 1 199.4075 985.4661)" class="st15 st1 st24">Учебный эл-т</text>
	</g>
</g>
<path class="st7" d="M337.3,824.2v36.7c0,2.4-2,4.4-4.4,4.4H166.7c-2.4,0-4.4-2-4.4-4.4v-36.7c0-2.4,2-4.4,4.4-4.4h166.2
	C335.3,819.8,337.3,821.8,337.3,824.2z"/>
<text transform="matrix(1 0 0 1 188.0329 848.3997)" class="st30 st1 st26">Учебный модуль</text>
<g>
	<path class="st14" d="M204.2,892.7v36.7c0,2.4-2,4.4-4.4,4.4H33.6c-2.4,0-4.4-2-4.4-4.4v-36.7c0-2.4,2-4.4,4.4-4.4h166.2
		C202.2,888.3,204.2,890.2,204.2,892.7z"/>
	<g>
		<text transform="matrix(1 0 0 1 56.9716 917.0667)" class="st15 st1 st24">Учебный эл-т</text>
	</g>
</g>
<line class="st7" x1="254" y1="865.3" x2="253.2" y2="955.2"/>
<g>
	<path class="st14" d="M492.2,893.9v36.7c0,2.4-2,4.4-4.4,4.4H321.6c-2.4,0-4.4-2-4.4-4.4v-36.7c0-2.4,2-4.4,4.4-4.4h166.2
		C490.2,889.5,492.2,891.4,492.2,893.9z"/>
	<g>
		<text transform="matrix(1 0 0 1 350.4608 917.0665)" class="st15 st1 st24">Учебный эл-т</text>
	</g>
</g>
<line class="st7" x1="179.6" y1="865.3" x2="179.6" y2="886.8"/>
<line class="st7" x1="322.9" y1="866.7" x2="322.9" y2="888.2"/>
</svg>
