<?xml version="1.0" encoding="utf-8"?>
<!-- Generator: Adobe Illustrator 21.1.0, SVG Export Plug-In . SVG Version: 6.00 Build 0)  -->
<svg version="1.1" id="Слой_1" xmlns="http://www.w3.org/2000/svg" xmlns:xlink="http://www.w3.org/1999/xlink" x="0px" y="0px"
	 viewBox="0 0 1010 1090" style="enable-background:new 0 0 1010 1090;" xml:space="preserve">
<style type="text/css">
	.st0{fill:#D82412;}
	.st1{font-family:'Tahoma';}
	.st2{font-size:39.7206px;}
	.st3{fill:#111D59;}
	.st4{fill:#F90606;}
	.st5{fill:#F90000;}
	.st6{opacity:0.21;fill:#567C51;stroke:#083F04;stroke-width:2.8346;stroke-miterlimit:10;enable-background:new    ;}
	.st7{fill:#1D4403;}
	.st8{font-size:18.6129px;}
	.st9{fill:none;stroke:#000000;stroke-width:2.8346;stroke-miterlimit:10;}
	.st10{fill:#020305;}
	.st11{font-size:17.6572px;}
	.st12{fill:none;stroke:#000102;stroke-width:2.8346;stroke-miterlimit:10;}
	.st13{fill:none;stroke:#030407;stroke-width:2.8346;stroke-miterlimit:10;}
	.st14{fill:none;stroke:#111D59;stroke-width:2.8346;stroke-miterlimit:10;}
	.st15{fill:#040714;}
</style>
<text transform="matrix(1 0 0 1 252.4614 68.3491)" class="st0 st1 st2">L</text>
<text transform="matrix(1 0 0 1 272.2314 67.8979)" class="st3 st1 st2">earning </text>
<text transform="matrix(1 0 0 1 439.8867 67.8979)" class="st3 st1 st2"> </text>
<text transform="matrix(1 0 0 1 410.7163 69.4473)" class="st4 st1 st2">M</text>
<text transform="matrix(1 0 0 1 441.3848 69.4473)" class="st3 st1 st2">anagement </text>
<text transform="matrix(1 0 0 1 650.1484 69.4473)" class="st5 st1 st2">S</text>
<text transform="matrix(1 0 0 1 672.3184 69.4473)" class="st3 st1 st2">ystem</text>
<g>
	<path class="st6" d="M845.4,326.6v38.1c0,2.5-2.1,4.6-4.6,4.6H668.2c-2.5,0-4.6-2.1-4.6-4.6v-38.1c0-2.5,2.1-4.6,4.6-4.6h172.5
		C843.3,322.1,845.3,324,845.4,326.6z"/>
	<g>
		<text transform="matrix(1 0 0 1 697.0127 351.8745)" class="st7 st1 st8">Учебный эл-т</text>
	</g>
</g>
<g>
	<path class="st9" d="M581.1,146.8H408.4c-2.5,0-4.6-2.1-4.6-4.6v-38.1c0-2.5,2.1-4.6,4.6-4.6H581c2.5,0,4.6,2.1,4.6,4.6v38.1
		C585.7,144.7,583.6,146.8,581.1,146.8z"/>
	<g>
		<text transform="matrix(1 0 0 1 437.481 127.8564)" class="st10 st1 st11">Учебный курс</text>
	</g>
</g>
<line class="st12" x1="237.6" y1="165" x2="751.8" y2="163.3"/>
<line class="st13" x1="751.8" y1="182" x2="751.8" y2="162.1"/>
<line class="st14" x1="238.7" y1="178.5" x2="238.7" y2="163.8"/>
<path class="st9" d="M840.2,186.6v38.1c0,2.5-2.1,4.6-4.6,4.6H663c-2.5,0-4.6-2.1-4.6-4.6v-38.1c0-2.5,2.1-4.6,4.6-4.6h172.6
	C838.1,182,840.2,184.1,840.2,186.6z"/>
<text transform="matrix(1 0 0 1 685.2031 211.6343)" class="st15 st1 st11">Учебный модуль</text>
<g>
	<path class="st6" d="M702,255.6v38.1c0,2.5-2.1,4.6-4.6,4.6H524.8c-2.5,0-4.6-2.1-4.6-4.6v-38.1c0-2.5,2.1-4.6,4.6-4.6h172.6
		C699.9,251.1,702,253,702,255.6z"/>
	<g>
		<text transform="matrix(1 0 0 1 549.1191 280.855)" class="st7 st1 st8">Учебный эл-т</text>
	</g>
</g>
<line class="st9" x1="753.7" y1="229.3" x2="752.8" y2="322.6"/>
<g>
	<path class="st6" d="M1001,256.9V295c0,2.5-2.1,4.6-4.6,4.6H823.9c-2.5,0-4.6-2.1-4.6-4.6v-38.1c0-2.5,2.1-4.6,4.6-4.6h172.6
		C998.9,252.3,1001,254.3,1001,256.9z"/>
	<g>
		<text transform="matrix(1 0 0 1 853.8516 280.855)" class="st7 st1 st8">Учебный эл-т</text>
	</g>
</g>
<line class="st9" x1="494.7" y1="145.1" x2="494.7" y2="162.9"/>
<line class="st9" x1="676.4" y1="229.3" x2="676.4" y2="251.6"/>
<line class="st9" x1="825.2" y1="230.6" x2="825.2" y2="252.9"/>
<g>
	<path class="st6" d="M334.1,326.1v38.1c0,2.5-2.1,4.6-4.6,4.6H157c-2.5,0-4.6-2.1-4.6-4.6v-38.1c0-2.5,2.1-4.6,4.6-4.6h172.5
		C332,321.6,334,323.5,334.1,326.1z"/>
	<g>
		<text transform="matrix(1 0 0 1 185.7275 351.4243)" class="st7 st1 st8">Учебный эл-т</text>
	</g>
</g>
<path class="st9" d="M328.9,184v38.1c0,2.5-2.1,4.6-4.6,4.6H151.8c-2.5,0-4.6-2.1-4.6-4.6V184c0-2.5,2.1-4.6,4.6-4.6h172.6
	C326.8,179.4,328.9,181.5,328.9,184z"/>
<text transform="matrix(1 0 0 1 173.9165 209.1074)" class="st15 st1 st11">Учебный модуль</text>
<g>
	<path class="st6" d="M190.7,255.1v38.1c0,2.5-2.1,4.6-4.6,4.6H13.6c-2.5,0-4.6-2.1-4.6-4.6v-38.1c0-2.5,2.1-4.6,4.6-4.6h172.6
		C188.6,250.5,190.7,252.5,190.7,255.1z"/>
	<g>
		<text transform="matrix(1 0 0 1 37.835 280.4048)" class="st7 st1 st8">Учебный эл-т</text>
	</g>
</g>
<line class="st9" x1="242.4" y1="226.7" x2="241.6" y2="320"/>
<g>
	<path class="st6" d="M489.7,256.4v38.1c0,2.5-2.1,4.6-4.6,4.6H312.6c-2.5,0-4.6-2.1-4.6-4.6v-38.1c0-2.5,2.1-4.6,4.6-4.6h172.6
		C487.7,251.8,489.7,253.8,489.7,256.4z"/>
	<g>
		<text transform="matrix(1 0 0 1 342.5674 280.4048)" class="st7 st1 st8">Учебный эл-т</text>
	</g>
</g>
<line class="st9" x1="165.2" y1="226.7" x2="165.2" y2="249"/>
<line class="st9" x1="314" y1="228.1" x2="314" y2="250.4"/>
</svg>
